<svg width="20.000000" height="20.000000" viewBox="0 0 20 20" fill="none" xmlns="http://www.w3.org/2000/svg" xmlns:xlink="http://www.w3.org/1999/xlink">
	<desc>
			Created with Pixso.
	</desc>
	<defs>
		<clipPath id="clip8_405">
			<rect id="Star" width="20.000000" height="20.000000" fill="white" fill-opacity="0"/>
		</clipPath>
		<clipPath id="clip508_6426">
			<rect id="Star icon" width="20.000000" height="20.000000" fill="white" fill-opacity="0"/>
		</clipPath>
	</defs>
	<rect id="Star icon" width="20.000000" height="20.000000" fill="#FFFFFF" fill-opacity="0"/>
	<g clip-path="url(#clip508_6426)">
		<path id="Star background" d="M9.53833 1.60999L7.47229 6.57739C7.40027 6.75061 7.23743 6.8689 7.05054 6.88379L1.68774 7.31372C1.24438 7.34937 1.0647 7.90259 1.40247 8.19189L5.48828 11.6919C5.63074 11.8138 5.69287 12.0052 5.64941 12.1876L4.40112 17.4208C4.29785 17.8534 4.76855 18.1953 5.14807 17.9635L9.73938 15.1592C9.89941 15.0614 10.1006 15.0614 10.2606 15.1592L14.8519 17.9635C15.2314 18.1953 15.7021 17.8534 15.5989 17.4208L14.3506 12.1876C14.3071 12.0052 14.3693 11.8138 14.5117 11.6919L18.5975 8.19189C18.9353 7.90259 18.7556 7.34924 18.3123 7.31372L12.9495 6.88379C12.7626 6.8689 12.5997 6.75061 12.5277 6.57739L10.4617 1.60999C10.2909 1.19934 9.70911 1.19934 9.53833 1.60999Z" fill="#F2F4F7" fill-opacity="1.000000" fill-rule="evenodd"/>
		<rect id="Star" width="20.000000" height="20.000000" fill="#FFFFFF" fill-opacity="0"/>
		<g clip-path="url(#clip8_405)">
			<path id="Star" d="M9.53833 1.60999L7.47229 6.57739C7.40027 6.75061 7.23743 6.8689 7.05054 6.88379L1.68774 7.31372C1.24438 7.34937 1.0647 7.90259 1.40247 8.19189L5.48828 11.6919C5.63074 11.8138 5.69287 12.0052 5.64941 12.1876L4.40112 17.4208C4.29785 17.8534 4.76855 18.1953 5.14807 17.9635L9.73938 15.1592C9.89941 15.0614 10.1006 15.0614 10.2606 15.1592L14.8519 17.9635C15.2314 18.1953 15.7021 17.8534 15.5989 17.4208L14.3506 12.1876C14.3071 12.0052 14.3693 11.8138 14.5117 11.6919L18.5975 8.19189C18.9353 7.90259 18.7556 7.34924 18.3123 7.31372L12.9495 6.88379C12.7626 6.8689 12.5997 6.75061 12.5277 6.57739L10.4617 1.60999C10.2909 1.19934 9.70911 1.19934 9.53833 1.60999Z" fill="#FDB022" fill-opacity="1.000000" fill-rule="evenodd"/>
		</g>
	</g>
</svg>
